<?xml version="1.0" encoding="UTF-8"?><svg xmlns="http://www.w3.org/2000/svg" viewBox="0 0 193.9 109.74">
  <g id="a" />
  <g id="b">
    <g id="c">
      <g>
        <g>
          <path
            d="M2,2.99c2.18-.36,5.04-.68,8.68-.68,4.47,0,7.74,1.04,9.82,2.91,1.92,1.66,3.07,4.21,3.07,7.33s-.94,5.67-2.7,7.48c-2.39,2.55-6.29,3.85-10.71,3.85-1.35,0-2.6-.05-3.64-.31v14.03H2V2.99ZM6.52,19.88c.99,.26,2.24,.36,3.74,.36,5.46,0,8.78-2.65,8.78-7.48s-3.27-6.86-8.26-6.86c-1.98,0-3.48,.16-4.26,.36v13.62Z" />
          <path
            d="M8.52,39.6H0V1.29l1.67-.28C4.52,.54,7.46,.31,10.68,.31c4.88,0,8.64,1.15,11.16,3.42,2.39,2.07,3.73,5.21,3.73,8.82s-1.1,6.65-3.27,8.88c-2.69,2.86-7.01,4.45-12.14,4.45-.54,0-1.09,0-1.64-.04v13.76Zm-4.52-4h.52V4.73l.48-.13c-.34,.04-.67,.07-1,.12v30.89ZM17.39,5.56c2.35,1.5,3.65,3.97,3.65,7.2s-1.14,5.53-3.18,7.18c.58-.37,1.1-.8,1.54-1.27,1.44-1.48,2.16-3.53,2.16-6.12,0-2.43-.84-4.49-2.37-5.82-.51-.46-1.11-.85-1.8-1.18Zm-8.87,12.62c.51,.04,1.09,.06,1.74,.06,3.09,0,6.78-.95,6.78-5.48,0-3.23-2.11-4.86-6.26-4.86-.9,0-1.66,.03-2.26,.08v10.2Z" />
        </g>
        <g>
          <path
            d="M29.65,3.04c2.29-.47,5.56-.73,8.68-.73,4.83,0,7.95,.88,10.14,2.86,1.77,1.56,2.75,3.95,2.75,6.65,0,4.63-2.91,7.69-6.6,8.94v.16c2.7,.94,4.31,3.43,5.15,7.07,1.14,4.89,1.98,8.26,2.7,9.62h-4.68c-.57-.99-1.35-4-2.34-8.37-1.04-4.83-2.91-6.65-7.02-6.81h-4.26v15.18h-4.52V3.04Zm4.52,15.96h4.63c4.83,0,7.9-2.65,7.9-6.65,0-4.52-3.27-6.5-8.06-6.55-2.18,0-3.74,.21-4.47,.42v12.79Z" />
          <path
            d="M55.81,39.6h-9.18l-.58-1c-.65-1.11-1.34-3.53-2.56-8.93-.94-4.36-2.34-5.15-5.14-5.25h-2.19v15.18h-8.52V1.41l1.6-.33c2.35-.48,5.75-.77,9.08-.77,5.36,0,8.9,1.04,11.48,3.38,2.19,1.94,3.41,4.83,3.41,8.14,0,3.81-1.75,7.12-4.74,9.22,1.51,1.51,2.59,3.68,3.23,6.5,.77,3.31,1.84,7.86,2.51,9.11l1.59,2.95Zm-6.69-4h.48c-.49-1.66-1.05-3.96-1.79-7.16-.55-2.4-1.41-4.04-2.62-4.97,1.01,1.31,1.72,3.07,2.21,5.34,.74,3.25,1.31,5.53,1.72,6.79Zm-17.48,0h.52V4.7l.24-.07c-.26,.03-.51,.06-.76,.1v30.87Zm9.47-14.8c.54,.14,1.03,.33,1.5,.55v-.91c-.48,.15-.98,.27-1.5,.36Zm-4.95-3.81h2.63c3.69,0,5.9-1.74,5.9-4.65,0-1.11,0-4.48-6.08-4.55-1,0-1.81,.05-2.45,.11v9.09Zm8.61-11.76c2.52,1.43,3.92,3.88,3.92,7.1,0,1.43-.3,2.73-.87,3.86,.8-1.06,1.39-2.48,1.39-4.38,0-2.14-.74-3.97-2.08-5.15-.66-.59-1.43-1.07-2.36-1.43Z" />
        </g>
        <g>
          <path
            d="M87.7,19.72c0,12.06-7.33,18.45-16.27,18.45s-15.75-7.17-15.75-17.77c0-11.12,6.91-18.4,16.27-18.4s15.75,7.33,15.75,17.72Zm-27.18,.57c0,7.48,4.05,14.19,11.18,14.19s11.23-6.6,11.23-14.55c0-6.97-3.64-14.24-11.18-14.24s-11.23,6.91-11.23,14.61Z" />
          <path
            d="M71.43,40.17c-10.45,0-17.75-8.13-17.75-19.78S61.2,0,71.95,0s17.75,8.11,17.75,19.72c0,14.13-9.18,20.45-18.27,20.45Zm-7.31-33.88c-4.02,2.73-6.44,7.74-6.44,14.1,0,7.39,3.39,12.88,8.81,14.92-4.83-2.33-7.98-7.94-7.98-15.02,0-6.23,2.09-11.18,5.6-14Zm13.24-1.25c4.98,2.65,7.56,8.8,7.56,14.89,0,6.55-2.46,11.78-6.44,14.5,4.53-2.56,7.22-7.78,7.22-14.71s-3.19-12.52-8.34-14.68Zm-5.62,2.65c-6.81,0-9.23,6.79-9.23,12.6s2.87,12.19,9.18,12.19,9.23-6.3,9.23-12.55c0-5.9-2.87-12.24-9.18-12.24Z" />
        </g>
        <g>
          <path
            d="M100.74,2.57h4.52V26.01c0,9.3-4.57,12.16-10.6,12.16-1.66,0-3.69-.36-4.83-.83l.68-3.69c.94,.36,2.29,.68,3.79,.68,4.05,0,6.44-1.82,6.44-8.68V2.57Z" />
          <path
            d="M94.66,40.17c-1.88,0-4.18-.4-5.59-.98l-1.5-.62,1.4-7.67,2.26,.88c.42,.16,1.55,.54,3.07,.54,2.08,0,4.44,0,4.44-6.68V.57h8.52V26.01c0,11.71-6.85,14.16-12.6,14.16ZM102.74,4.57V25.65c0,3.91-.64,8.93-5.54,10.31,3.18-.61,6.06-2.83,6.06-9.95V4.57h-.52Z" />
        </g>
        <g>
          <path d="M130.94,21.18h-13.62v12.63h15.18v3.79h-19.7V2.57h18.92v3.79h-14.4v11.07h13.62v3.74Z" />
          <path
            d="M134.5,39.6h-23.7V.57h22.92v7.79h-14.4v7.07h13.62v7.74h-13.62v8.63h15.18v7.79Zm-19.7-4h.52V4.57h-.52v31.03Z" />
        </g>
        <g>
          <path
            d="M162.85,36.46c-1.66,.83-4.99,1.66-9.25,1.66-9.88,0-17.31-6.24-17.31-17.72s7.43-18.4,18.3-18.4c4.37,0,7.12,.94,8.32,1.56l-1.09,3.69c-1.71-.83-4.16-1.46-7.07-1.46-8.21,0-13.67,5.25-13.67,14.45,0,8.58,4.94,14.09,13.46,14.09,2.76,0,5.56-.57,7.38-1.46l.94,3.59Z" />
          <path
            d="M153.59,40.12c-11.73,0-19.31-7.74-19.31-19.72S142.63,0,154.58,0c5.25,0,8.21,1.25,9.24,1.79l1.46,.76-2.23,7.53-2.12-1.03c-.97-.47-3.06-1.25-6.2-1.25-7.31,0-11.67,4.65-11.67,12.45s4.18,12.09,11.46,12.09c2.38,0,4.94-.49,6.51-1.25l2.19-1.06,1.96,7.51-1.45,.73c-1.81,.91-5.43,1.88-10.15,1.88Zm-7.32-34.19c-4.98,2.64-7.99,7.81-7.99,14.46,0,8.38,4.38,14.01,11.65,15.39-6.81-1.7-10.87-7.34-10.87-15.55,0-6.58,2.67-11.63,7.21-14.31Z" />
        </g>
        <g>
          <path d="M176.61,6.42h-10.65V2.57h25.94v3.85h-10.71v31.19h-4.57V6.42Z" />
          <path d="M183.19,39.6h-8.57V8.42h-10.66V.57h29.94v7.85h-10.71v31.19Zm-4.57-4h.57V4.57h-.57v31.03Z" />
        </g>
        <g>
          <path
            d="M2,107.74V53.37h7.3l16.6,27.51c3.84,6.37,6.84,12.1,9.3,17.67l.15-.08c-.61-7.26-.77-13.88-.77-22.35v-22.75h6.3v54.38h-6.76l-16.45-27.59c-3.61-6.05-7.07-12.26-9.69-18.15l-.23,.08c.38,6.86,.54,13.39,.54,22.43v23.24H2Z" />
          <path
            d="M42.9,109.74h-9.9l-17.03-28.57c-2.26-3.78-4.18-7.16-5.83-10.27,.11,4.05,.17,8.4,.17,13.6v25.24H0V51.37H10.43l17.19,28.48c1.9,3.14,3.61,6.17,5.17,9.13-.15-4.15-.2-8.32-.2-12.86v-24.75h10.3v58.38Zm-7.63-4h3.63V55.37h-2.3v20.75c0,7.91,.13,14.72,.76,22.18l.11,1.32-3.22,1.71-.87-1.96c-2.47-5.58-5.47-11.29-9.18-17.44L8.17,55.37H4v50.38h2.3v-21.24c0-9.07-.15-15.54-.54-22.32l-.08-1.51,3.4-1.17,.75,1.68c2.24,5.05,5.28,10.75,9.57,17.94l15.87,26.62Z" />
        </g>
        <g>
          <path
            d="M60.95,90.64l-5.38,17.1h-6.92l17.6-54.38h8.07l17.68,54.38h-7.15l-5.53-17.1h-18.37Zm16.99-5.49l-5.07-15.65c-1.15-3.55-1.92-6.78-2.69-9.92h-.15c-.77,3.23-1.61,6.54-2.61,9.84l-5.07,15.73h15.61Z" />
          <path
            d="M94.76,109.74h-11.36l-5.53-17.1h-15.45l-5.38,17.1h-11.14l18.9-58.38h10.98l18.98,58.38Zm-8.45-4h2.94l-16.38-50.38h-5.16l-16.31,50.38h2.7l5.38-17.1h21.29l5.53,17.1Zm-5.62-18.59h-21.1l5.92-18.35c.84-2.79,1.66-5.88,2.57-9.69l.37-1.54h3.3l.51,2.11c.71,2.92,1.45,5.94,2.51,9.2l5.92,18.27Zm-15.61-4h10.11l-4.23-13.04c-.31-.96-.6-1.89-.86-2.81-.26,.93-.52,1.82-.78,2.69l-4.24,13.15Z" />
        </g>
        <g>
          <path
            d="M142.97,83.86c-.38-7.58-.85-16.7-.77-23.48h-.23c-1.77,6.37-3.92,13.15-6.53,20.65l-9.15,26.38h-5.07l-8.38-25.9c-2.46-7.67-4.54-14.68-6-21.14h-.15c-.15,6.78-.54,15.89-1,24.04l-1.38,23.32h-6.38l3.61-54.38h8.53l8.84,26.3c2.15,6.7,3.92,12.67,5.23,18.31h.23c1.31-5.49,3.15-11.46,5.46-18.31l9.23-26.3h8.53l3.23,54.38h-6.53l-1.31-23.88Z" />
          <path
            d="M152.93,109.74h-10.55l-1.41-25.78,2-.1-2,.07c-.18-3.57-.38-7.56-.54-11.5-.95,2.95-1.98,6.03-3.11,9.26l-9.62,27.72h-7.95l-8.83-27.28c-1.02-3.17-1.91-6.05-2.69-8.69-.16,3.65-.35,7.43-.55,11.1l-1.5,25.2h-10.4l3.88-58.38h11.84l9.3,27.67c1.41,4.39,2.55,8.13,3.48,11.49,.97-3.33,2.16-7.07,3.64-11.49l9.7-27.67h11.84l3.47,58.38Zm-6.76-4h2.52l-2.99-50.38h-5.23l-8.75,24.96c-2.57,7.65-4.24,13.24-5.4,18.12l-.37,1.54h-3.4l-.36-1.55c-1.16-5.01-2.76-10.6-5.18-18.15l-8.37-24.91h-5.22l-3.35,50.38h2.36l1.27-21.44c.47-8.37,.85-17.33,1-23.97l.04-1.95h3.71l.35,1.56c1.29,5.7,3.12,12.17,5.95,20.97l7.93,24.51h2.19l8.68-25.04c2.65-7.6,4.77-14.31,6.5-20.53l.41-1.47h3.77l-.02,2.02c-.08,6.71,.39,15.92,.76,23.33l-2,.13,2-.11,1.2,21.99Z" />
        </g>
        <g>
          <path d="M189.46,82.25h-21.29v19.6h23.72v5.89h-30.79V53.37h29.57v5.89h-22.5v17.18h21.29v5.81Z" />
          <path
            d="M193.9,109.74h-34.79V51.37h33.57v9.89h-22.5v13.18h21.29v9.81h-21.29v15.6h23.72v9.89Zm-30.79-4h26.79v-1.89h-23.72v-23.6h21.29v-1.81h-21.29v-21.18h22.5v-1.89h-25.57v50.38Z" />
        </g>
      </g>
    </g>
  </g>
</svg>