<?xml version="1.0" encoding="UTF-8"?><svg xmlns="http://www.w3.org/2000/svg" viewBox="0 0 304 294.48">
    <g id="a" />
    <g id="b">
        <g id="c">
            <g>
                <rect width="304" height="294.48" fill="#999" />
                <g id="d">
                    <g id="e">
                        <g>
                            <g>
                                <path
                                    d="M63.99,99.15c2.02-.33,4.67-.63,8.05-.63,4.14,0,7.17,.96,9.1,2.7,1.78,1.54,2.85,3.9,2.85,6.79s-.87,5.26-2.5,6.93c-2.22,2.36-5.83,3.57-9.93,3.57-1.25,0-2.41-.05-3.37-.29v13h-4.19v-32.08Zm4.19,15.66c.92,.24,2.08,.33,3.47,.33,5.06,0,8.14-2.46,8.14-6.93s-3.03-6.36-7.66-6.36c-1.84,0-3.23,.15-3.95,.33v12.62Z"
                                    fill="#fff" />
                                <path
                                    d="M70.03,133.08h-7.9v-35.51l1.55-.26c2.64-.44,5.37-.65,8.35-.65,4.52,0,8.01,1.07,10.34,3.17,2.22,1.92,3.46,4.83,3.46,8.18s-1.02,6.16-3.03,8.23c-2.49,2.65-6.5,4.12-11.25,4.12-.5,0-1.01,0-1.52-.04v12.75Zm-4.19-3.71h.48v-28.61l.44-.12c-.32,.04-.62,.06-.93,.11v28.63h0Zm12.41-27.85c2.18,1.39,3.38,3.68,3.38,6.67s-1.06,5.13-2.95,6.66c.54-.34,1.02-.74,1.43-1.18,1.33-1.37,2-3.27,2-5.67,0-2.25-.78-4.16-2.2-5.39-.47-.43-1.03-.79-1.67-1.09h0Zm-8.22,11.71c.47,.04,1.01,.06,1.61,.06,2.86,0,6.28-.88,6.28-5.08,0-2.99-1.96-4.5-5.8-4.5-.83,0-1.54,.03-2.09,.07v9.45Z"
                                    fill="#fff" />
                            </g>
                            <g>
                                <path
                                    d="M89.62,99.19c2.12-.44,5.15-.68,8.05-.68,4.48,0,7.37,.82,9.4,2.65,1.64,1.45,2.55,3.66,2.55,6.16,0,4.29-2.7,7.13-6.12,8.29v.15c2.5,.87,4,3.18,4.77,6.55,1.06,4.53,1.84,7.66,2.5,8.92h-4.34c-.53-.92-1.25-3.71-2.17-7.76-.96-4.48-2.7-6.16-6.51-6.31h-3.95v14.07h-4.19v-32.04Zm4.19,14.79h4.29c4.48,0,7.32-2.46,7.32-6.16,0-4.19-3.03-6.03-7.47-6.07-2.02,0-3.47,.19-4.14,.39v11.86h0Z"
                                    fill="#fff" />
                                <path
                                    d="M113.87,133.08h-8.51l-.54-.93c-.6-1.03-1.24-3.27-2.37-8.28-.87-4.04-2.17-4.77-4.76-4.87h-2.03v14.07h-7.9v-35.4l1.48-.31c2.18-.44,5.33-.71,8.42-.71,4.97,0,8.25,.96,10.64,3.13,2.03,1.8,3.16,4.48,3.16,7.55,0,3.53-1.62,6.6-4.39,8.55,1.4,1.4,2.4,3.41,2.99,6.03,.71,3.07,1.71,7.29,2.33,8.44l1.47,2.73h0Zm-6.2-3.72h.44c-.45-1.54-.97-3.67-1.66-6.64-.51-2.22-1.31-3.74-2.43-4.61,.94,1.21,1.59,2.85,2.05,4.95,.69,3.01,1.21,5.13,1.59,6.29Zm-16.2,0h.48v-28.64l.22-.06c-.24,.03-.47,.06-.7,.09v28.61Zm8.78-13.72c.5,.13,.95,.31,1.39,.51v-.84c-.44,.14-.91,.25-1.39,.33Zm-4.59-3.53h2.44c3.42,0,5.47-1.61,5.47-4.31,0-1.03,0-4.15-5.64-4.22-.93,0-1.68,.05-2.27,.1v8.43Zm7.98-10.9c2.34,1.33,3.63,3.6,3.63,6.58,0,1.33-.28,2.53-.81,3.58,.74-.98,1.29-2.3,1.29-4.06,0-1.98-.69-3.68-1.93-4.77-.61-.55-1.33-.99-2.19-1.33Z"
                                    fill="#fff" />
                            </g>
                            <g>
                                <path
                                    d="M143.43,114.65c0,11.18-6.79,17.1-15.08,17.1s-14.6-6.65-14.6-16.47c0-10.31,6.41-17.06,15.08-17.06s14.6,6.79,14.6,16.43Zm-25.19,.53c0,6.93,3.75,13.15,10.36,13.15s10.41-6.12,10.41-13.49c0-6.46-3.37-13.2-10.36-13.2s-10.41,6.41-10.41,13.54h0Z"
                                    fill="#fff" />
                                <path
                                    d="M128.34,133.61c-9.69,0-16.45-7.54-16.45-18.33s6.97-18.9,16.93-18.9,16.45,7.52,16.45,18.28c0,13.1-8.51,18.96-16.93,18.96Zm-6.78-31.4c-3.73,2.53-5.97,7.17-5.97,13.07,0,6.85,3.14,11.94,8.17,13.83-4.48-2.16-7.4-7.36-7.4-13.92,0-5.77,1.94-10.36,5.19-12.98h0Zm12.27-1.16c4.62,2.46,7.01,8.16,7.01,13.8,0,6.07-2.28,10.92-5.97,13.44,4.2-2.37,6.69-7.21,6.69-13.64s-2.96-11.61-7.73-13.61Zm-5.21,2.46c-6.31,0-8.56,6.29-8.56,11.68s2.66,11.3,8.51,11.3,8.56-5.84,8.56-11.63c0-5.47-2.66-11.35-8.51-11.35Z"
                                    fill="#fff" />
                            </g>
                            <g>
                                <path
                                    d="M155.51,98.76h4.19v21.73c0,8.62-4.24,11.27-9.83,11.27-1.54,0-3.42-.33-4.48-.77l.63-3.42c.87,.33,2.12,.63,3.51,.63,3.75,0,5.97-1.69,5.97-8.05v-21.39Z"
                                    fill="#fff" />
                                <path
                                    d="M149.88,133.61c-1.74,0-3.87-.37-5.18-.91l-1.39-.57,1.3-7.11,2.09,.82c.39,.15,1.44,.5,2.85,.5,1.93,0,4.12,0,4.12-6.19v-23.24h7.9v23.58c0,10.85-6.35,13.13-11.68,13.13Zm7.49-33v19.54c0,3.62-.59,8.28-5.14,9.56,2.95-.57,5.62-2.62,5.62-9.22v-19.87h-.48Z"
                                    fill="#fff" />
                            </g>
                            <g>
                                <path
                                    d="M183.51,116.01h-12.62v11.71h14.07v3.51h-18.26v-32.47h17.54v3.51h-13.35v10.26h12.62v3.47h0Z"
                                    fill="#fff" />
                                <path
                                    d="M186.81,133.08h-21.97v-36.18h21.25v7.22h-13.35v6.55h12.62v7.17h-12.62v8h14.07v7.22h0Zm-18.26-3.7h.48v-28.76h-.48v28.76Z"
                                    fill="#fff" />
                            </g>
                            <g>
                                <path
                                    d="M213.08,130.17c-1.54,.77-4.63,1.54-8.57,1.54-9.16,0-16.05-5.78-16.05-16.43s6.89-17.06,16.96-17.06c4.05,0,6.6,.87,7.71,1.45l-1.01,3.42c-1.59-.77-3.86-1.35-6.55-1.35-7.61,0-12.67,4.87-12.67,13.39,0,7.95,4.58,13.06,12.48,13.06,2.56,0,5.15-.53,6.84-1.35l.87,3.33h0Z"
                                    fill="#fff" />
                                <path
                                    d="M204.5,133.56c-10.87,0-17.9-7.17-17.9-18.28s7.74-18.91,18.82-18.91c4.87,0,7.61,1.16,8.56,1.66l1.35,.7-2.07,6.98-1.97-.95c-.9-.44-2.84-1.16-5.75-1.16-6.78,0-10.82,4.31-10.82,11.54s3.87,11.21,10.62,11.21c2.21,0,4.58-.45,6.03-1.16l2.03-.98,1.82,6.96-1.34,.68c-1.68,.84-5.03,1.74-9.41,1.74v-.03Zm-6.78-31.69c-4.62,2.45-7.41,7.24-7.41,13.4,0,7.77,4.06,12.99,10.8,14.27-6.31-1.58-10.08-6.8-10.08-14.41,0-6.1,2.47-10.78,6.68-13.26h0Z"
                                    fill="#fff" />
                            </g>
                            <g>
                                <path d="M225.84,102.33h-9.87v-3.57h24.04v3.57h-9.93v28.91h-4.24v-28.91h0Z"
                                    fill="#fff" />
                                <path
                                    d="M231.94,133.08h-7.94v-28.9h-9.88v-7.28h27.75v7.28h-9.93v28.91h0Zm-4.24-3.72h.53v-28.76h-.53v28.76Z"
                                    fill="#fff" />
                            </g>
                            <g>
                                <path
                                    d="M63.99,196.24v-50.4h6.77l15.39,25.5c3.56,5.9,6.34,11.22,8.62,16.38l.14-.07c-.57-6.73-.71-12.87-.71-20.72v-21.09h5.84v50.41h-6.27l-15.25-25.57c-3.35-5.61-6.55-11.36-8.98-16.82l-.21,.07c.35,6.36,.5,12.41,.5,20.79v21.54h-5.83v-.02Z"
                                    fill="#fff" />
                                <path
                                    d="M101.9,198.1h-9.18l-15.79-26.48c-2.09-3.5-3.87-6.64-5.4-9.52,.1,3.75,.16,7.79,.16,12.61v23.4h-9.56v-54.1h9.67l15.93,26.4c1.76,2.91,3.35,5.72,4.79,8.46-.14-3.85-.19-7.71-.19-11.92v-22.94h9.55v54.11h0Zm-7.07-3.72h3.36v-46.69h-2.13v19.23c0,7.33,.12,13.64,.7,20.56l.1,1.22-2.98,1.59-.81-1.82c-2.29-5.17-5.07-10.46-8.51-16.17l-14.86-24.62h-3.87v46.7h2.13v-19.69c0-8.41-.14-14.4-.5-20.69l-.07-1.4,3.15-1.08,.7,1.56c2.08,4.68,4.89,9.96,8.87,16.63l14.71,24.67h0Z"
                                    fill="#fff" />
                            </g>
                            <g>
                                <path
                                    d="M118.63,180.39l-4.99,15.85h-6.41l16.31-50.41h7.48l16.39,50.41h-6.63l-5.13-15.85h-17.03Zm15.75-5.09l-4.7-14.51c-1.07-3.29-1.78-6.28-2.49-9.2h-.14c-.71,2.99-1.49,6.06-2.42,9.12l-4.7,14.58h14.45Z"
                                    fill="#fff" />
                                <path
                                    d="M149.97,198.1h-10.53l-5.13-15.85h-14.32l-4.99,15.85h-10.33l17.52-54.11h10.18l17.59,54.11Zm-7.83-3.71h2.73l-15.18-46.7h-4.78l-15.12,46.7h2.5l4.99-15.85h19.73l5.13,15.85h0Zm-5.21-17.23h-19.56l5.49-17.01c.78-2.59,1.54-5.45,2.38-8.98l.34-1.43h3.06l.47,1.96c.66,2.71,1.34,5.51,2.33,8.53l5.49,16.93Zm-14.47-3.71h9.37l-3.92-12.09c-.29-.89-.56-1.75-.8-2.6-.24,.86-.48,1.69-.72,2.49l-3.93,12.19h0Z"
                                    fill="#fff" />
                            </g>
                            <g>
                                <path
                                    d="M194.66,174.11c-.35-7.03-.79-15.48-.71-21.76h-.21c-1.64,5.9-3.63,12.19-6.05,19.14l-8.48,24.45h-4.7l-7.77-24.01c-2.28-7.11-4.21-13.61-5.56-19.6h-.14c-.14,6.28-.5,14.73-.93,22.28l-1.28,21.62h-5.91l3.35-50.41h7.91l8.19,24.38c1.99,6.21,3.63,11.74,4.85,16.97h.21c1.21-5.09,2.92-10.62,5.06-16.97l8.56-24.38h7.91l2.99,50.41h-6.05l-1.21-22.13h0Z"
                                    fill="#fff" />
                                <path
                                    d="M203.89,198.1h-9.78l-1.31-23.9,1.85-.09-1.85,.06c-.17-3.31-.35-7.01-.5-10.66-.88,2.73-1.84,5.59-2.88,8.58l-8.92,25.69h-7.37l-8.18-25.29c-.95-2.94-1.77-5.61-2.49-8.05-.15,3.38-.32,6.89-.51,10.29l-1.39,23.36h-9.64l3.6-54.11h10.97l8.62,25.65c1.31,4.07,2.36,7.54,3.23,10.65,.9-3.09,2-6.55,3.37-10.65l8.99-25.65h10.97l3.22,54.11Zm-6.27-3.71h2.34l-2.77-46.7h-4.85l-8.11,23.14c-2.38,7.09-3.93,12.27-5.01,16.8l-.34,1.43h-3.15l-.33-1.44c-1.08-4.64-2.56-9.83-4.8-16.82l-7.76-23.09h-4.84l-3.11,46.7h2.19l1.18-19.87c.44-7.76,.79-16.06,.93-22.22l.04-1.81h3.44l.32,1.45c1.2,5.28,2.89,11.28,5.52,19.44l7.35,22.72h2.03l8.05-23.21c2.46-7.04,4.42-13.26,6.03-19.03l.38-1.36h3.49l-.02,1.87c-.07,6.22,.36,14.76,.7,21.63l-1.85,.12,1.85-.1,1.11,20.38h0Z"
                                    fill="#fff" />
                            </g>
                            <g>
                                <path
                                    d="M237.75,172.61h-19.73v18.17h21.99v5.46h-28.54v-50.4h27.41v5.46h-20.86v15.92h19.73v5.39h0Z"
                                    fill="#fff" />
                                <path
                                    d="M241.87,198.1h-32.25v-54.1h31.12v9.17h-20.86v12.22h19.73v9.09h-19.73v14.46h21.99v9.17Zm-28.54-3.71h24.83v-1.75h-21.99v-21.88h19.73v-1.68h-19.73v-19.63h20.86v-1.75h-23.7v46.7h0Z"
                                    fill="#fff" />
                            </g>
                        </g>
                    </g>
                </g>
            </g>
        </g>
    </g>
</svg>